<?xml version="1.0" encoding="UTF-8"?>
<svg version="1.1" xmlns="http://www.w3.org/2000/svg" width="1024" height="1024">
<path d="M0 0 C337.92 0 675.84 0 1024 0 C1024 337.92 1024 675.84 1024 1024 C686.08 1024 348.16 1024 0 1024 C0 686.08 0 348.16 0 0 Z " fill="#C4EAFE" transform="translate(0,0)"/>
<path d="M0 0 C0.05607422 1.51980469 0.05607422 1.51980469 0.11328125 3.0703125 C0.17898388 4.42190939 0.24542971 5.77347029 0.3125 7.125 C0.34633789 8.12273437 0.34633789 8.12273437 0.38085938 9.140625 C0.66744164 14.45542338 1.8353729 18.62179636 5.46484375 22.609375 C10.65709362 26.63095845 14.06238071 28.49897557 20.625 28.3046875 C25.46515849 27.68374611 29.03516001 25.85270272 32.57421875 22.515625 C37.95219032 15.55045838 36.41531449 9.3549681 37 0 C62.08 0 87.16 0 113 0 C113.33 4.62 113.66 9.24 114 14 C116.00260865 20.85102958 119.2872756 23.73111287 125.25 27.375 C130.92342772 28.66441539 136.2029196 27.8985402 141.375 25.3125 C147.52565458 19.8940662 149.05332635 14.74106108 149.5625 6.8125 C149.64628906 5.54019531 149.73007812 4.26789063 149.81640625 2.95703125 C149.87699219 1.98121094 149.93757812 1.00539063 150 0 C162.43273475 -0.87417666 174.80289828 0.74874143 185.125 8.3125 C193.06694679 15.36192324 198.26018667 23.69622516 199.21824646 34.44963074 C199.56529443 41.67645965 199.45879492 48.90828487 199.390625 56.140625 C199.38315369 58.47759515 199.37746497 60.81457161 199.37347412 63.15155029 C199.35828796 69.26720842 199.31906696 75.38247942 199.2746582 81.49798584 C199.23355353 87.75251023 199.21543077 94.00709788 199.1953125 100.26171875 C199.15256564 112.50798148 199.08440002 124.7539584 199 137 C197.84894775 137.1139209 196.69789551 137.2278418 195.51196289 137.34521484 C193.9779745 137.50829277 192.44404178 137.67189488 190.91015625 137.8359375 C190.15432251 137.9093335 189.39848877 137.98272949 188.61975098 138.05834961 C178.6477089 139.1516926 170.49224248 143.38980184 163.68359375 150.79296875 C157.18430641 159.31291619 153.85315302 169.31545092 155 180 C157.07436067 190.93076283 160.7675118 199.46032086 170 206 C169.18887304 212.24027004 165.780935 215.19019242 161 219 C147.60502732 227.29744141 134.7311585 228.4566854 119.42578125 228.51171875 C117.64787071 228.52859348 115.8699719 228.54674741 114.09208679 228.56611633 C109.44800483 228.61331942 104.80397042 228.64331984 100.159729 228.66955566 C95.4065207 228.69951222 90.65347584 228.74599012 85.90039062 228.79101562 C76.60034644 228.87671027 67.30026831 228.94420481 58 229 C58.75825915 230.8917647 59.52408368 232.78049786 60.29296875 234.66796875 C60.71860107 235.72008545 61.1442334 236.77220215 61.58276367 237.85620117 C68.19045108 252.51377064 79.68212576 259.98894163 94 266 C108.91813942 271.54297841 128.25707516 268.61811022 142.42578125 262.52734375 C159.01653692 254.28070492 169.84425838 240.69372914 176.0078125 223.45703125 C177.54024063 218.11766551 178.52772905 212.71611601 179.421875 207.23828125 C180 204 180 204 181 202 C180.319375 201.79375 179.63875 201.5875 178.9375 201.375 C171.83807749 198.05186606 167.85847181 193.20765203 165 186 C162.36524814 178.09574441 162.99738723 169.01693149 166.4375 161.5 C170.83608014 153.82829801 177.14358448 148.81080987 185.6875 146.4375 C194.93240851 144.68846326 202.19817316 146.56564366 210.23046875 151.3203125 C216.05844796 155.32226445 219.76424462 160.29273387 222 167 C222.72706249 176.73225078 223.30603438 185.93414207 217 194 C212.01109951 199.52003819 207.17944336 203.0194639 200 205 C199.01 205 198.02 205 197 205 C196.90203125 205.93199219 196.8040625 206.86398437 196.703125 207.82421875 C194.37441747 227.67845792 187.65567679 245.16883455 174 260 C173.46117187 260.63035156 172.92234375 261.26070312 172.3671875 261.91015625 C160.45802009 275.04614744 140.62555459 283.88830694 123.16064453 285.21582031 C111.20250822 285.75123051 99.49800755 285.59494666 88 282 C86.91976562 281.67128906 85.83953125 281.34257813 84.7265625 281.00390625 C67.08938689 274.95029134 53.48844516 262.49710864 45 246 C42.44698321 240.20014656 40 234.39358459 40 228 C39.06278107 228.00999275 39.06278107 228.00999275 38.10662842 228.02018738 C31.5519327 228.08701056 24.99733513 228.13199392 18.44238281 228.16479492 C16.0022386 228.17979978 13.56212098 228.20021015 11.12207031 228.22631836 C7.59693808 228.26306851 4.07216512 228.27981002 0.546875 228.29296875 C-1.06637665 228.31619453 -1.06637665 228.31619453 -2.71221924 228.33988953 C-16.12414906 228.3428112 -28.31437502 224.92971787 -38.375 215.77734375 C-48.59623044 204.59787295 -50.60403014 190.74996085 -50.51757812 176.21655273 C-50.52301103 174.66614122 -50.5301402 173.11573488 -50.53881836 171.56533813 C-50.55691446 167.38969248 -50.55004196 163.21444611 -50.53730202 159.03879428 C-50.52710445 154.64906743 -50.53658614 150.2593725 -50.54284668 145.86964417 C-50.55010279 138.50198287 -50.54058831 131.13448251 -50.52148438 123.7668457 C-50.49971143 115.27225432 -50.50677822 106.77804697 -50.52879 98.28346485 C-50.54699262 90.9633331 -50.54947888 83.64331638 -50.53903532 76.32316929 C-50.53282806 71.96284864 -50.53188809 67.60270801 -50.54518127 63.24239922 C-50.55681063 59.14224939 -50.54858621 55.04259069 -50.52560425 50.94249344 C-50.52035505 49.44582112 -50.52176527 47.94910683 -50.53065491 46.45245171 C-50.60472025 32.70639056 -47.75094814 21.27532518 -38.15234375 11.02734375 C-27.35469134 0.91661952 -14.26308391 -0.44805499 0 0 Z " fill="#1881C8" transform="translate(180,362)"/>
<path d="M0 0 C0.85191422 -0.00287018 1.70382843 -0.00574036 2.58155823 -0.00869751 C4.38291081 -0.01073852 6.18428554 -0.00520608 7.9855957 0.00732422 C10.740252 0.02335802 13.49343668 0.00748744 16.24804688 -0.01171875 C17.99870115 -0.00973594 19.74935451 -0.00589147 21.5 0 C22.32302109 -0.00607269 23.14604218 -0.01214539 23.9940033 -0.0184021 C27.20638616 0.02100746 29.80702053 0.21597612 32.84301758 1.3034668 C35.39767962 4.93587028 34.80109358 9.00190494 34.70703125 13.31640625 C34.70137146 14.28878738 34.69571167 15.26116852 34.68988037 16.26301575 C34.66747554 19.3711555 34.61727106 22.47814574 34.56640625 25.5859375 C34.54634658 27.69204065 34.52809489 29.79816186 34.51171875 31.90429688 C34.46759718 37.06945386 34.39854085 42.23375074 34.31640625 47.3984375 C34.87350784 47.39177567 35.43060944 47.38511383 36.0045929 47.37825012 C41.79556515 47.31195184 47.58642986 47.26666 53.37768555 47.23364258 C55.53983946 47.21854306 57.70196268 47.19806179 59.86401367 47.17211914 C62.96931525 47.13578733 66.07421239 47.11872288 69.1796875 47.10546875 C70.14852371 47.08998489 71.11735992 47.07450104 72.11555481 47.05854797 C73.46661568 47.05820808 73.46661568 47.05820808 74.8449707 47.05786133 C75.63772903 47.05119949 76.43048737 47.04453766 77.24726868 47.03767395 C79.89045321 47.4985252 80.7557347 48.23677245 82.31640625 50.3984375 C82.62712372 53.43520793 82.76053149 56.26249169 82.75 59.30078125 C82.75524185 60.17489151 82.7604837 61.04900177 82.7658844 61.94960022 C82.77230683 63.79801369 82.77096473 65.64646802 82.76245117 67.49487305 C82.75394759 70.32219334 82.78268773 73.14748911 82.81445312 75.97460938 C82.8160654 77.77083273 82.8154871 79.56705966 82.8125 81.36328125 C82.82373398 82.20817612 82.83496796 83.05307098 82.84654236 83.92356873 C82.80438894 87.47723952 82.64923609 89.79668346 80.91137695 92.9387207 C76.82271706 95.23866402 72.90991384 94.8900989 68.30078125 94.7890625 C67.32981506 94.78340271 66.35884888 94.77774292 65.35845947 94.77191162 C62.26060456 94.74954061 59.16391092 94.69934223 56.06640625 94.6484375 C53.96486047 94.62837347 51.86329653 94.61012253 49.76171875 94.59375 C44.61283455 94.5496733 39.46481722 94.48064008 34.31640625 94.3984375 C34.34782715 96.32876831 34.34782715 96.32876831 34.37988281 98.2980957 C34.45221584 103.06702573 34.49818169 107.83590717 34.53613281 112.60522461 C34.55626356 114.67041168 34.5835707 116.73554166 34.61816406 118.80053711 C34.66661787 121.76690751 34.6893601 124.73252522 34.70703125 127.69921875 C34.72767639 128.6243074 34.74832153 129.54939606 34.76959229 130.5025177 C34.77178776 136.75680465 34.77178776 136.75680465 32.84082031 139.47753906 C29.1010495 140.84179588 25.46455454 140.84610067 21.53515625 140.83203125 C20.68465698 140.8372731 19.83415771 140.84251495 18.95788574 140.84791565 C17.16252737 140.85432941 15.36712694 140.8530072 13.57177734 140.84448242 C10.82573682 140.83596644 8.08177289 140.86475057 5.3359375 140.89648438 C3.58984437 140.89809638 1.84374757 140.89751887 0.09765625 140.89453125 C-0.72222778 140.90576523 -1.54211182 140.91699921 -2.38684082 140.92857361 C-5.90023671 140.88563569 -8.11717438 140.71982845 -11.20800781 138.96606445 C-13.48578242 135.00257082 -13.17745324 131.31096253 -13.07421875 126.8203125 C-13.06855896 125.8937384 -13.06289917 124.96716431 -13.05706787 124.01251221 C-13.03470296 121.05729188 -12.98450637 118.10329045 -12.93359375 115.1484375 C-12.9135289 113.1432467 -12.8952781 111.13803686 -12.87890625 109.1328125 C-12.83483775 104.22088556 -12.7658093 99.30986808 -12.68359375 94.3984375 C-14.55277466 94.4298584 -14.55277466 94.4298584 -16.4597168 94.46191406 C-21.09078442 94.53441101 -25.72180205 94.58027263 -30.35327148 94.61816406 C-32.35628703 94.63825741 -34.35924407 94.66553715 -36.36206055 94.70019531 C-39.24412483 94.74881361 -42.12541241 94.77142902 -45.0078125 94.7890625 C-46.34715096 94.82003021 -46.34715096 94.82003021 -47.71354675 94.85162354 C-51.62139509 94.85302825 -54.18384494 94.63624077 -57.7512207 92.9387207 C-60.61052911 89.17989518 -60.36674404 85.97033405 -60.27734375 81.36328125 C-60.27738403 80.48821426 -60.27742432 79.61314728 -60.27746582 78.71156311 C-60.27211209 76.86484582 -60.25453548 75.01812899 -60.22558594 73.17163086 C-60.18368693 70.34222998 -60.18452084 67.515206 -60.19140625 64.68554688 C-60.1809151 62.89060843 -60.16797739 61.09568227 -60.15234375 59.30078125 C-60.15214233 58.45386215 -60.15194092 57.60694305 -60.1517334 56.73435974 C-60.03352717 50.88273997 -60.03352717 50.88273997 -58.43681335 48.6729126 C-56.20631559 47.05148774 -54.95432865 47.03481788 -52.2121582 47.05786133 C-51.31145096 47.05808792 -50.41074371 47.05831451 -49.48274231 47.05854797 C-48.02948799 47.08177376 -48.02948799 47.08177376 -46.546875 47.10546875 C-45.05500923 47.11183601 -45.05500923 47.11183601 -43.53300476 47.11833191 C-40.35376 47.13513597 -37.17514719 47.17279174 -33.99609375 47.2109375 C-31.84180602 47.22598209 -29.68750837 47.23967088 -27.53320312 47.25195312 C-22.24978408 47.28504506 -16.96673406 47.33526158 -11.68359375 47.3984375 C-11.6993042 46.08125732 -11.71501465 44.76407715 -11.73120117 43.40698242 C-11.78544761 38.52618511 -11.81992465 33.6454145 -11.84838867 28.7644043 C-11.86348735 26.65075196 -11.88396801 24.53713102 -11.90991211 22.42358398 C-11.94624772 19.38777935 -11.96330919 16.35238844 -11.9765625 13.31640625 C-11.99204636 12.36944382 -12.00753021 11.42248138 -12.02348328 10.44682312 C-12.02370987 9.56613663 -12.02393646 8.68545013 -12.02416992 7.77807617 C-12.03083176 7.00308273 -12.03749359 6.22808929 -12.0443573 5.42961121 C-10.92509322 -0.872078 -5.18630958 -0.0381735 0 0 Z " fill="#F9F8F5" transform="translate(242.68359375,409.6015625)"/>
<path d="M0 0 C5.82797921 4.00195195 9.53377587 8.97242137 11.76953125 15.6796875 C12.49659374 25.41193828 13.07556563 34.61382957 6.76953125 42.6796875 C1.78063076 48.19972569 -3.05102539 51.6991514 -10.23046875 53.6796875 C-11.22046875 53.6796875 -12.21046875 53.6796875 -13.23046875 53.6796875 C-13.37742187 55.07767578 -13.37742187 55.07767578 -13.52734375 56.50390625 C-15.85605128 76.35814542 -22.57479196 93.84852205 -36.23046875 108.6796875 C-36.76929688 109.31003906 -37.308125 109.94039062 -37.86328125 110.58984375 C-49.77244866 123.72583494 -69.60491416 132.56799444 -87.06982422 133.89550781 C-99.02796053 134.43091801 -110.7324612 134.27463416 -122.23046875 130.6796875 C-123.85082031 130.18662109 -123.85082031 130.18662109 -125.50390625 129.68359375 C-143.36059711 123.55463453 -156.36027124 111.1012522 -165.23046875 94.6796875 C-166.8825665 91.16162821 -167.50422845 88.43939796 -167.48046875 84.5546875 C-167.485625 83.70648437 -167.49078125 82.85828125 -167.49609375 81.984375 C-167.23046875 79.6796875 -167.23046875 79.6796875 -165.23046875 76.6796875 C-162.84765625 76.38671875 -162.84765625 76.38671875 -160.10546875 76.4921875 C-158.74035156 76.53279297 -158.74035156 76.53279297 -157.34765625 76.57421875 C-156.64898437 76.60902344 -155.9503125 76.64382813 -155.23046875 76.6796875 C-154.90046875 77.9996875 -154.57046875 79.3196875 -154.23046875 80.6796875 C-153.24046875 80.6796875 -152.25046875 80.6796875 -151.23046875 80.6796875 C-150.62912109 82.02160156 -150.62912109 82.02160156 -150.015625 83.390625 C-143.11097218 98.30070238 -133.75718681 107.89494639 -118.28515625 113.8046875 C-115.93963372 114.53284972 -113.62985183 115.16032193 -111.23046875 115.6796875 C-110.50730469 115.86015625 -109.78414063 116.040625 -109.0390625 116.2265625 C-91.07466925 119.12485126 -73.44053468 115.74859594 -58.23046875 105.6796875 C-41.66747415 93.36756784 -34.05794778 75.82458972 -30.80859375 55.91796875 C-30.23046875 52.6796875 -30.23046875 52.6796875 -29.23046875 50.6796875 C-30.25140625 50.3703125 -30.25140625 50.3703125 -31.29296875 50.0546875 C-38.39239126 46.73155356 -42.37199694 41.88733953 -45.23046875 34.6796875 C-47.86522061 26.77543191 -47.23308152 17.69661899 -43.79296875 10.1796875 C-39.39438861 2.50798551 -33.08688427 -2.50950263 -24.54296875 -4.8828125 C-15.29806024 -6.63184924 -8.03229559 -4.75466884 0 0 Z " fill="#02549F" transform="translate(390.23046875,513.3203125)"/>
<path d="M0 0 C1.32330322 0.0146228 1.32330322 0.0146228 2.67333984 0.02954102 C13.57476385 0.3257208 21.00677259 3.15420485 28.953125 10.796875 C37.12923824 20.45955428 39.19377218 31.1141119 38.1875 43.4375 C35.61782388 54.70146891 30.52325291 62.62413995 21.1875 69.4375 C14.53727613 73.43209756 7.63723485 73.82059091 0.0625 73.9375 C-0.7725708 73.95619141 -1.6076416 73.97488281 -2.46801758 73.99414062 C-11.4774278 73.90180016 -19.83251871 70.20530163 -26.37109375 63.9453125 C-34.99634102 54.61025685 -36.28909595 44.17060087 -36.08984375 31.9375 C-35.72105563 23.07190693 -31.81019487 15.86360165 -25.8125 9.4375 C-18.10694713 2.38739872 -10.29312952 -0.12682079 0 0 Z " fill="#024286" transform="translate(606.8125,402.5625)"/>
<path d="M0 0 C7.1226997 4.7795312 11.91242878 12.00977764 14.30859375 20.2109375 C16.34894727 31.1098259 14.9897049 43.02647742 9.08984375 52.52734375 C3.62488284 59.93928091 -3.03222412 65.81337503 -12.22265625 67.71484375 C-15.41221348 68.02081033 -18.58194975 68.12038924 -21.78515625 68.15234375 C-22.57639893 68.16257568 -23.3676416 68.17280762 -24.18286133 68.18334961 C-34.5135046 68.03027926 -43.61689424 64.28323402 -50.98046875 56.96875 C-58.21634173 48.22388843 -60.09538058 37.63095502 -59.60546875 26.5546875 C-58.61548777 16.62457214 -54.56518249 8.11764224 -46.82421875 1.73828125 C-33.21220894 -8.19480699 -14.56876542 -8.4237677 0 0 Z " fill="#024186" transform="translate(549.22265625,408.28515625)"/>
<path d="M0 0 C40.92982456 0 40.92982456 0 48.625 7.5625 C52.06467559 12.02612526 52.55804201 16.47222533 52 22 C50.10831429 27.56378149 46.51486007 30.51180674 42 34 C42.53109375 34.27972656 43.0621875 34.55945313 43.609375 34.84765625 C48.65369781 37.7104015 52.22762936 40.31960715 54 46 C54.9197281 51.36070092 54.59545169 55.6457435 51.8125 60.375 C47.96508048 65.73121149 43.30898215 69.02673641 37 71 C34.06352117 71.37435945 31.17898607 71.35242932 28.22265625 71.29296875 C27.50235229 71.28994751 26.78204834 71.28692627 26.03991699 71.28381348 C23.38062967 71.26826209 20.72154857 71.22637934 18.0625 71.1875 C12.101875 71.125625 6.14125 71.06375 0 71 C0 47.57 0 24.14 0 0 Z " fill="#024286" transform="translate(430,404)"/>
<path d="M0 0 C15 0 15 0 18.265625 2.28125 C18.92046875 3.3434375 19.5753125 4.405625 20.25 5.5 C20.63091797 6.07951416 21.01183594 6.65902832 21.40429688 7.25610352 C22.21820838 8.4998909 23.01085071 9.75781993 23.78320312 11.02783203 C25.458485 13.74310631 27.28756304 16.33968764 29.11621094 18.953125 C30.41842362 20.8205182 31.69562349 22.70255065 32.96875 24.58984375 C37.22748458 30.78586351 41.6299746 36.88196444 46 43 C46.33 28.81 46.66 14.62 47 0 C51.95 0 56.9 0 62 0 C62 23.43 62 46.86 62 71 C46 71 46 71 42.015625 67.66015625 C40.58032227 65.46264648 40.58032227 65.46264648 39.25 63.0625 C38.20243847 61.40846415 37.15424553 59.75482806 36.10546875 58.1015625 C35.5954834 57.25368164 35.08549805 56.40580078 34.56005859 55.53222656 C32.09167954 51.52564949 29.31922771 47.74849913 26.5625 43.9375 C22.5990922 38.35964605 18.79752774 32.6962916 15 27 C14.67 41.52 14.34 56.04 14 71 C9.38 71 4.76 71 0 71 C0 47.57 0 24.14 0 0 Z " fill="#034387" transform="translate(750,404)"/>
<path d="M0 0 C6.27 0 12.54 0 19 0 C21.78796179 6.13359276 24.31637392 12.29630689 26.64453125 18.6171875 C26.97740646 19.51382111 27.31028168 20.41045471 27.65324402 21.33425903 C28.70904039 24.18017659 29.76082678 27.02755658 30.8125 29.875 C31.50559801 31.74488857 32.1989556 33.61468094 32.89257812 35.484375 C34.5958562 40.07795937 36.29411661 44.67337952 37.99078369 49.26940918 C39.01534479 52.04151769 40.04326967 54.8123614 41.07177734 57.58300781 C41.71846644 59.3287605 42.36511537 61.07452806 43.01171875 62.8203125 C43.3139888 63.63273407 43.61625885 64.44515564 43.9276886 65.28219604 C46 70.88666482 46 70.88666482 46 72 C40.39 72 34.78 72 29 72 C28.175 69.73125 27.35 67.4625 26.5 65.125 C26.23896484 64.41230957 25.97792969 63.69961914 25.70898438 62.96533203 C24 58.22222222 24 58.22222222 24 56 C14.43 56.33 4.86 56.66 -5 57 C-6.98 61.95 -8.96 66.9 -11 72 C-16.61 72 -22.22 72 -28 72 C-24.08207038 60.69897649 -19.94274604 49.52957646 -15.52319336 38.41601562 C-14.56354044 36.00261658 -13.60853477 33.58741956 -12.65429688 31.171875 C-8.52690263 20.74293689 -4.29024429 10.36301589 0 0 Z " fill="#0267B7" transform="translate(592,506)"/>
<path d="M0 0 C1.34191406 -0.0299707 1.34191406 -0.0299707 2.7109375 -0.06054688 C12.99516231 -0.05307287 19.77855949 4.16034759 27.625 10.4375 C25.315 14.0675 23.005 17.6975 20.625 21.4375 C17.27370411 20.09698164 15.08190704 19.11732656 12.1875 17.3125 C6.35333888 14.35652503 -0.013293 14.6731687 -6.375 15.4375 C-11.74825971 17.93884504 -15.03739811 21.69541612 -17.625 27 C-19.42056351 35.22966609 -19.09564304 42.86333381 -15.375 50.4375 C-12.62517243 54.70447382 -10.03102941 56.48692673 -5.375 58.4375 C-1.9230268 58.87139989 -1.9230268 58.87139989 1.625 58.75 C3.3884375 58.74419922 3.3884375 58.74419922 5.1875 58.73828125 C8.62775637 58.43725882 11.41043405 57.66746349 14.625 56.4375 C14.955 52.8075 15.285 49.1775 15.625 45.4375 C10.345 45.4375 5.065 45.4375 -0.375 45.4375 C-0.375 41.4775 -0.375 37.5175 -0.375 33.4375 C9.525 33.4375 19.425 33.4375 29.625 33.4375 C29.80926252 37.76511014 29.96814836 42.07905323 30.06445312 46.4074707 C30.10458611 47.87734127 30.15911158 49.34689433 30.22851562 50.81567383 C30.79014931 63.01055809 30.79014931 63.01055809 27.97338867 66.46020508 C25.89235199 67.77768367 23.94937089 68.63899917 21.625 69.4375 C20.81675781 69.88738281 20.00851562 70.33726562 19.17578125 70.80078125 C12.85377406 73.48184189 6.77847138 73.85409268 0 73.9375 C-0.88260498 73.95594971 -1.76520996 73.97439941 -2.67456055 73.9934082 C-11.98998321 73.90555148 -18.85017744 70.6055492 -25.58984375 64.28125 C-34.12931017 55.46149475 -35.87649614 46.04184309 -35.79663086 34.0559082 C-35.486606 24.29370641 -32.06181323 16.58547276 -25.375 9.4375 C-17.49141479 2.35672388 -10.46096615 -0.08219331 0 0 Z " fill="#024185" transform="translate(856.375,402.5625)"/>
<path d="M0 0 C5.28 0 10.56 0 16 0 C16 9.24 16 18.48 16 28 C26.56 28 37.12 28 48 28 C48 18.76 48 9.52 48 0 C52.95 0 57.9 0 63 0 C63 23.76 63 47.52 63 72 C58.05 72 53.1 72 48 72 C48 62.1 48 52.2 48 42 C37.11 42 26.22 42 15 42 C15 51.9 15 61.8 15 72 C10.05 72 5.1 72 0 72 C0 48.24 0 24.48 0 0 Z " fill="#006AB8" transform="translate(430,506)"/>
<path d="M0 0 C4.95 0 9.9 0 15 0 C15 9.57 15 19.14 15 29 C26.22 29 37.44 29 49 29 C49 19.43 49 9.86 49 0 C53.95 0 58.9 0 64 0 C64 23.76 64 47.52 64 72 C59.05 72 54.1 72 49 72 C49 62.1 49 52.2 49 42 C38.11 42 27.22 42 16 42 C16 51.9 16 61.8 16 72 C10.72 72 5.44 72 0 72 C0 48.24 0 24.48 0 0 Z " fill="#0168B7" transform="translate(755,506)"/>
<path d="M0 0 C16.5 0 33 0 50 0 C50 4.29 50 8.58 50 13 C38.45 13 26.9 13 15 13 C15 18.28 15 23.56 15 29 C25.23 29 35.46 29 46 29 C46 33.29 46 37.58 46 42 C35.77 42 25.54 42 15 42 C15 47.94 15 53.88 15 60 C27.21 60 39.42 60 52 60 C52 63.96 52 67.92 52 72 C34.84 72 17.68 72 0 72 C0 48.24 0 24.48 0 0 Z " fill="#0068B8" transform="translate(506,506)"/>
<path d="M0 0 C4.62 0 9.24 0 14 0 C14.33 9.24 14.66 18.48 15 28 C17.31 25.36 19.62 22.72 22 20 C24.3011461 17.47126802 26.60376034 14.94632319 28.95483398 12.46386719 C31.06148451 10.21971055 32.96782204 8.05031182 34.62890625 5.453125 C36.29917073 2.88628803 37.32473822 1.53628894 40 0 C45.95630583 -0.94778759 52.01721812 -0.455831 58 0 C56.45872649 3.71268094 54.19156766 5.98115698 51.3125 8.75 C47.61729463 12.37098317 44.10322273 16.04555271 40.73828125 19.97265625 C38.7078395 22.34074449 36.63736733 24.67077065 34.5625 27 C33.88316406 27.763125 33.20382812 28.52625 32.50390625 29.3125 C32.00761719 29.869375 31.51132812 30.42625 31 31 C32.28812524 33.7310948 33.70331137 36.08767248 35.546875 38.4765625 C36.05581299 39.13914062 36.56475098 39.80171875 37.08911133 40.484375 C37.63720459 41.19078125 38.18529785 41.8971875 38.75 42.625 C39.31549561 43.35976563 39.88099121 44.09453125 40.46362305 44.8515625 C43.61691761 48.94250979 46.79156914 53.01657919 49.97265625 57.0859375 C50.61428711 57.90755371 51.25591797 58.72916992 51.91699219 59.57568359 C53.16899402 61.17696878 54.42350652 62.77629449 55.68066406 64.37353516 C56.24624023 65.09589355 56.81181641 65.81825195 57.39453125 66.5625 C57.89831299 67.20316406 58.40209473 67.84382813 58.92114258 68.50390625 C60 70 60 70 60 71 C43.42828669 73.35803035 43.42828669 73.35803035 38.06835938 69.67138672 C34.52514311 65.99892502 31.99770732 61.64912924 29.41943359 57.27197266 C27.04132871 53.46553233 24.17353467 50.0742967 21.3125 46.625 C16.14104271 40.28208543 16.14104271 40.28208543 15 38 C14.67 48.89 14.34 59.78 14 71 C9.38 71 4.76 71 0 71 C0 47.57 0 24.14 0 0 Z " fill="#014085" transform="translate(654,404)"/>
<path d="M0 0 C20.79 0 41.58 0 63 0 C63 4.29 63 8.58 63 13 C55.08 13 47.16 13 39 13 C39 32.47 39 51.94 39 72 C34.05 72 29.1 72 24 72 C24 52.53 24 33.06 24 13 C16.08 13 8.16 13 0 13 C0 8.71 0 4.42 0 0 Z " fill="#0067B7" transform="translate(685,506)"/>
<path d="M0 0 C5.28 0 10.56 0 16 0 C16 19.8 16 39.6 16 60 C27.55 60 39.1 60 51 60 C51 63.96 51 67.92 51 72 C34.17 72 17.34 72 0 72 C0 48.24 0 24.48 0 0 Z " fill="#016BB9" transform="translate(646,506)"/>
<path d="M0 0 C5.74727119 3.21847187 8.92179915 5.98858727 11.39453125 12.125 C13.48069685 19.62180901 12.89829511 26.94596796 9.31640625 33.84765625 C6.24960972 38.74447562 2.78058617 41.46702543 -2.63671875 43.2421875 C-9.33684365 44.76228564 -15.19238641 44.39746476 -21.19140625 40.9453125 C-25.67023245 37.76544981 -28.59993509 33.05973458 -29.875 27.75 C-30.74151072 19.92314776 -30.72103026 13.23083891 -26.30078125 6.51953125 C-19.90500396 -1.41824166 -9.49037526 -3.80863744 0 0 Z " fill="#C6EAFD" transform="translate(535.875,418.25)"/>
<path d="M0 0 C6.74444525 4.03904631 10.55356828 9.50383391 12.51171875 17.0546875 C13.30408015 23.95955116 11.72186254 29.88857552 8.51171875 36.0546875 C4.49247391 40.94979683 -0.24270242 43.61904042 -6.58203125 44.26953125 C-12.78553431 44.53509217 -18.50160456 43.73673642 -23.25 39.47265625 C-29.42956047 32.60481543 -30.10393804 25.90563725 -29.87109375 16.95703125 C-29.22144313 10.33457237 -26.66475852 7.07191033 -21.92578125 2.6796875 C-15.32317836 -1.72204776 -7.62850587 -2.89811369 0 0 Z " fill="#C6EBFD" transform="translate(616.48828125,417.9453125)"/>
<path d="M0 0 C4.62 0 9.24 0 14 0 C14 23.43 14 46.86 14 71 C9.38 71 4.76 71 0 71 C0 47.57 0 24.14 0 0 Z " fill="#003E83" transform="translate(721,404)"/>
<path d="M0 0 C3 2.4375 3 2.4375 5 5 C5.33 5.33 5.66 5.66 6 6 C6.12570227 8.38986682 6.18862695 10.74927176 6.203125 13.140625 C6.20882507 13.85982117 6.21452515 14.57901733 6.22039795 15.32000732 C6.22986361 16.84662397 6.23638812 18.3732612 6.24023438 19.89990234 C6.24990279 22.22660574 6.28089405 24.55241183 6.3125 26.87890625 C6.31903369 28.36197392 6.32428272 29.84504792 6.328125 31.328125 C6.3404718 32.02101624 6.3528186 32.71390747 6.36553955 33.42779541 C6.34556345 37.80148932 5.64254138 40.50313977 3 44 C-0.42919572 46.57189679 -3.83939486 46.502142 -8 46 C-10.97239241 44.21523759 -13.42604027 42.14791945 -15 39 C-15.1349498 36.57779073 -15.21254926 34.1855955 -15.23828125 31.76171875 C-15.246353 31.04393753 -15.25442474 30.32615631 -15.26274109 29.58662415 C-15.27657786 28.06599337 -15.28730185 26.54533159 -15.29516602 25.0246582 C-15.31235842 22.70658958 -15.35624181 20.38995531 -15.40039062 18.07226562 C-15.41051977 16.59376047 -15.41903519 15.11524321 -15.42578125 13.63671875 C-15.44328934 12.94696457 -15.46079742 12.25721039 -15.47883606 11.54655457 C-15.45739701 6.75501852 -14.38454362 4.36327947 -11 1 C-7.53003768 -0.73498116 -3.78492805 -0.60794181 0 0 Z " fill="#0178C5" transform="translate(203,336)"/>
<path d="M0 0 C2.80549309 1.21977961 4.40987049 2.11681827 6.10961914 4.66064453 C8.01063705 9.65531236 7.41208369 15.34807481 7.42553711 20.64404297 C7.43742749 22.8614779 7.48662573 25.0761212 7.53710938 27.29296875 C7.54657576 28.71352818 7.55380977 30.13410459 7.55859375 31.5546875 C7.57204834 32.83843262 7.58550293 34.12217773 7.59936523 35.44482422 C6.81376536 40.10466347 5.30462551 41.6863412 2 45 C-1.14911479 46.57455739 -3.52008816 46.34799118 -7 46 C-9.97672584 44.22719439 -12.42804007 42.14391985 -14 39 C-14.2356996 34.48706684 -14.22842295 29.97026544 -14.24023438 25.4519043 C-14.24991811 23.20648855 -14.28092957 20.96199688 -14.3125 18.71679688 C-14.31903252 17.28385959 -14.32428202 15.85091577 -14.328125 14.41796875 C-14.3374707 13.11625732 -14.34681641 11.8145459 -14.35644531 10.47338867 C-13.97561274 6.7623578 -13.26029511 4.93063747 -11 2 C-7.28957469 -0.47361688 -4.30137325 -0.54607278 0 0 Z " fill="#0177C5" transform="translate(315,336)"/>
<path d="M0 0 C3.42484369 2.28322912 4.97163392 4.19326784 6.8125 7.875 C7.68409882 13.86724187 6.20703687 17.10429953 2.8125 21.875 C-0.14743131 24.35494245 -1.83217338 24.83692929 -5.6875 25.25 C-11.27419296 24.65142575 -14.54579341 22.03695039 -18.1875 17.875 C-19.39393566 14.25569302 -19.51018559 11.68268995 -19.1875 7.875 C-14.90138553 -0.37973899 -8.93720649 -3.15430817 0 0 Z " fill="#C5E9FC" transform="translate(379.1875,526.125)"/>
<path d="M0 0 C4.95 0 9.9 0 15 0 C15 23.76 15 47.52 15 72 C10.05 72 5.1 72 0 72 C0 62.1 0 52.2 0 42 C-10.89 42 -21.78 42 -33 42 C-33 51.9 -33 61.8 -33 72 C-37.95 72 -42.9 72 -48 72 C-48.04592378 67.63979181 -48.08574415 63.28042339 -48.10986328 58.92016602 C-48.11991821 57.43706417 -48.13356404 55.95398212 -48.15087891 54.47094727 C-48.17515006 52.33865469 -48.18648799 50.20662431 -48.1953125 48.07421875 C-48.20578613 46.79119873 -48.21625977 45.50817871 -48.22705078 44.1862793 C-48 41 -48 41 -46 38 C-46 48.89 -46 59.78 -46 71 C-42.04 71 -38.08 71 -34 71 C-34.00523682 70.09644775 -34.01047363 69.19289551 -34.01586914 68.26196289 C-34.03287686 64.92048511 -34.04543333 61.57905308 -34.05493164 58.23754883 C-34.05997101 56.78929927 -34.06680253 55.34105483 -34.07543945 53.89282227 C-34.08752247 51.81525412 -34.09323211 49.73775303 -34.09765625 47.66015625 C-34.10551147 45.78275757 -34.10551147 45.78275757 -34.11352539 43.86743164 C-34 41 -34 41 -33 40 C-30.57509629 39.88677566 -28.17973138 39.83583125 -25.75390625 39.83203125 C-24.66443947 39.82703865 -24.66443947 39.82703865 -23.55296326 39.82194519 C-22.01374954 39.81687325 -20.4745248 39.81453695 -18.93530273 39.81469727 C-16.57582529 39.81251234 -14.21681639 39.79436435 -11.85742188 39.77539062 C-10.36458494 39.77245648 -8.87174577 39.77047183 -7.37890625 39.76953125 C-6.67053116 39.76234573 -5.96215607 39.75516022 -5.23231506 39.74775696 C-0.22882337 39.77117663 -0.22882337 39.77117663 2 42 C2.24291992 44.45849609 2.24291992 44.45849609 2.23046875 47.5234375 C2.22853516 48.626875 2.22660156 49.7303125 2.22460938 50.8671875 C2.20624023 52.60355469 2.20624023 52.60355469 2.1875 54.375 C2.18685547 55.52484375 2.18621094 56.6746875 2.18554688 57.859375 C2.16127304 62.48758591 2.1278279 66.48868839 1 71 C5.29 71 9.58 71 14 71 C14 48.23 14 25.46 14 2 C10.04 2 6.08 2 2 2 C2.01160156 3.68609375 2.02320313 5.3721875 2.03515625 7.109375 C2.04453566 9.32291556 2.0536357 11.53645732 2.0625 13.75 C2.07087891 14.86117187 2.07925781 15.97234375 2.08789062 17.1171875 C2.09111328 18.18710937 2.09433594 19.25703125 2.09765625 20.359375 C2.10289307 21.34389648 2.10812988 22.32841797 2.11352539 23.34277344 C2 26 2 26 1 30 C-10.22 30 -21.44 30 -33 30 C-33 29.67 -33 29.34 -33 29 C-22.11 29 -11.22 29 0 29 C0 19.43 0 9.86 0 0 Z " fill="#0156B0" transform="translate(478,506)"/>
<path d="M0 0 C0.33 0 0.66 0 1 0 C1 23.43 1 46.86 1 71 C5.95 71 10.9 71 16 71 C16 56.15 16 41.3 16 26 C18.78519153 28.78519153 20.73862808 30.86029619 22.84765625 34.01953125 C23.36529541 34.7875708 23.88293457 35.55561035 24.41625977 36.34692383 C24.95951904 37.16056396 25.50277832 37.9742041 26.0625 38.8125 C30.70190799 45.68494027 35.44177795 52.45417341 40.39672852 59.1027832 C43.05551635 62.6760913 45.52298026 66.28447039 48 70 C53.28 70.33 58.56 70.66 64 71 C64 47.57 64 24.14 64 0 C64.33 0 64.66 0 65 0 C65.02312504 9.37035938 65.04091591 18.74070901 65.05181217 28.11109066 C65.05704065 32.46168459 65.06413765 36.81225907 65.07543945 41.1628418 C65.08626959 45.35790258 65.0922771 49.55294459 65.09487724 53.74801826 C65.09673126 55.35206968 65.10035144 56.95612003 65.10573006 58.5601635 C65.11294219 60.79916515 65.11399087 63.0380883 65.11352539 65.27709961 C65.115746 66.55395126 65.11796661 67.83080292 65.12025452 69.14634705 C65 72 65 72 64 73 C58.67644179 73.90968143 53.26617996 74.49385963 48 73 C44.13812522 69.88759957 41.72346326 66.18774804 39.20947266 61.98535156 C37.51750275 59.20797988 35.65253525 56.56399172 33.78833008 53.90039062 C32.45169371 51.98490689 31.14179602 50.05372919 29.8359375 48.1171875 C26.3473034 42.989913 22.66618276 38.00100813 19 33 C18.98018066 34.14065918 18.96036133 35.28131836 18.93994141 36.45654297 C18.86399433 40.67975323 18.77526072 44.90261399 18.68261719 49.12548828 C18.64428223 50.95484529 18.60943737 52.78427885 18.578125 54.61376953 C18.53257195 57.24018759 18.47456269 59.86607659 18.4140625 62.4921875 C18.39673569 63.72350906 18.39673569 63.72350906 18.37905884 64.97970581 C18.22774341 70.77225659 18.22774341 70.77225659 16 73 C13.43707683 73.17163731 10.99654143 73.23264558 8.4375 73.1875 C7.73947266 73.18685547 7.04144531 73.18621094 6.32226562 73.18554688 C1.14031158 73.14031158 1.14031158 73.14031158 0 72 C-0.09436529 69.76070114 -0.11742327 67.5183825 -0.11352539 65.27709961 C-0.11367142 64.5746965 -0.11381744 63.8722934 -0.1139679 63.14860535 C-0.11326872 60.81648722 -0.10547617 58.484448 -0.09765625 56.15234375 C-0.09579208 54.53951562 -0.09436818 52.92668693 -0.09336853 51.31385803 C-0.08954323 47.06084643 -0.07971285 42.80786876 -0.06866455 38.55487061 C-0.05845069 34.2182257 -0.05387096 29.88157533 -0.04882812 25.54492188 C-0.03809059 17.02993231 -0.02101403 8.51497037 0 0 Z " fill="#E3F8FD" transform="translate(748,404)"/>
<path d="M0 0 C2.35125 -0.061875 4.7025 -0.12375 7.125 -0.1875 C7.85348145 -0.21481201 8.58196289 -0.24212402 9.33251953 -0.27026367 C13.99472075 -0.32906279 17.07847104 0.50395264 21 3 C23.34549674 6.51824511 23.57991403 7.85775694 23 12 C20.97069379 14.79131477 19.40283662 16.73232669 15.90161133 17.40039062 C13.47863673 17.49189077 11.10884677 17.43672063 8.6875 17.3125 C7.85154297 17.28994141 7.01558594 17.26738281 6.15429688 17.24414062 C4.10208851 17.1855061 2.05080798 17.09583215 0 17 C0 11.39 0 5.78 0 0 Z " fill="#CAECFD" transform="translate(445,445)"/>
<path d="M0 0 C5.28 0 10.56 0 16 0 C15.67 19.8 15.34 39.6 15 60 C14.67 60 14.34 60 14 60 C14 40.86 14 21.72 14 2 C10.04 2 6.08 2 2 2 C2 24.77 2 47.54 2 71 C17.51 71 33.02 71 49 71 C49 67.7 49 64.4 49 61 C38.44 61 27.88 61 17 61 C17 60.67 17 60.34 17 60 C28.22 60 39.44 60 51 60 C51 63.96 51 67.92 51 72 C34.17 72 17.34 72 0 72 C0 48.24 0 24.48 0 0 Z " fill="#0D62B5" transform="translate(646,506)"/>
<path d="M0 0 C14.50043691 -0.41038972 14.50043691 -0.41038972 20 3 C21.56430248 6.12860495 21.35627284 8.55602925 21 12 C18.90609059 14.31023923 17.23311331 15.79616139 14.08886719 16.31591797 C11.93723682 16.39330383 9.83879835 16.34919278 7.6875 16.25 C5.150625 16.1675 2.61375 16.085 0 16 C0 10.72 0 5.44 0 0 Z " fill="#CBECFD" transform="translate(445,417)"/>
<path d="M0 0 C16.5 0 33 0 50 0 C50 4.29 50 8.58 50 13 C38.45 13 26.9 13 15 13 C15 18.28 15 23.56 15 29 C14.67 29 14.34 29 14 29 C13.97315688 26.18743719 13.95323812 23.37512759 13.9375 20.5625 C13.92912109 19.76005859 13.92074219 18.95761719 13.91210938 18.13085938 C13.9034857 16.08704779 13.9477185 14.04316098 14 12 C15 11 15 11 18.14282227 10.88647461 C19.53402697 10.88663367 20.92523761 10.89232494 22.31640625 10.90234375 C23.04746078 10.9037587 23.77851532 10.90517365 24.53172302 10.90663147 C26.87535632 10.91224592 29.21889539 10.92480078 31.5625 10.9375 C33.14778508 10.94251314 34.73307166 10.94707637 36.31835938 10.95117188 C40.2122761 10.96222003 44.10612205 10.97949428 48 11 C48 8.03 48 5.06 48 2 C32.49 2 16.98 2 1 2 C1 24.77 1 47.54 1 71 C11.89 71 22.78 71 34 71 C34 71.33 34 71.66 34 72 C22.78 72 11.56 72 0 72 C0 48.24 0 24.48 0 0 Z " fill="#065AB3" transform="translate(506,506)"/>
<path d="M0 0 C2.3311226 2.3311226 2.87370814 4.05258596 3.9453125 7.15625 C4.29980469 8.17847656 4.65429688 9.20070313 5.01953125 10.25390625 C5.38433594 11.32511719 5.74914062 12.39632812 6.125 13.5 C6.68380859 15.10681641 6.68380859 15.10681641 7.25390625 16.74609375 C10 24.72284226 10 24.72284226 10 27 C3.73 27 -2.54 27 -9 27 C-8.25586432 23.27932159 -7.44581937 20.21008115 -6.15234375 16.69921875 C-5.79462891 15.72275391 -5.43691406 14.74628906 -5.06835938 13.74023438 C-4.50858398 12.22913086 -4.50858398 12.22913086 -3.9375 10.6875 C-3.37192383 9.14739258 -3.37192383 9.14739258 -2.79492188 7.57617188 C-1.86653932 5.04956113 -0.93479871 2.52424239 0 0 Z " fill="#C2E9FD" transform="translate(601,523)"/>
<path d="M0 0 C4.95 0 9.9 0 15 0 C15 9.57 15 19.14 15 29 C14.67 29 14.34 29 14 29 C14 20.09 14 11.18 14 2 C10.04 2 6.08 2 2 2 C2 24.77 2 47.54 2 71 C5.96 71 9.92 71 14 71 C14 61.43 14 51.86 14 42 C14.33 42 14.66 42 15 42 C15 51.9 15 61.8 15 72 C10.05 72 5.1 72 0 72 C0 48.24 0 24.48 0 0 Z " fill="#0259B1" transform="translate(755,506)"/>
<path d="M0 0 C20.79 0 41.58 0 63 0 C63 4.29 63 8.58 63 13 C50.625 13.495 50.625 13.495 38 14 C38 13.34 38 12.68 38 12 C45.59 12 53.18 12 61 12 C61 8.7 61 5.4 61 2 C41.53 2 22.06 2 2 2 C2 4.97 2 7.94 2 11 C2.62567871 10.99476318 3.25135742 10.98952637 3.89599609 10.98413086 C6.72232057 10.96338382 9.54862905 10.95034714 12.375 10.9375 C13.85226562 10.92493164 13.85226562 10.92493164 15.359375 10.91210938 C16.77089844 10.90727539 16.77089844 10.90727539 18.2109375 10.90234375 C19.08024902 10.89710693 19.94956055 10.89187012 20.84521484 10.88647461 C23 11 23 11 25 12 C24.67 12.66 24.34 13.32 24 14 C16.08 13.67 8.16 13.34 0 13 C0 8.71 0 4.42 0 0 Z " fill="#0D68BA" transform="translate(685,506)"/>
<path d="M0 0 C5.28 0 10.56 0 16 0 C16 9.24 16 18.48 16 28 C26.56 28 37.12 28 48 28 C48 28.33 48 28.66 48 29 C36.78 29 25.56 29 14 29 C14 20.09 14 11.18 14 2 C10.04 2 6.08 2 2 2 C2.01047363 3.07483643 2.02094727 4.14967285 2.03173828 5.25708008 C2.06792779 9.24337435 2.09089663 13.22965408 2.10986328 17.21606445 C2.11992326 18.94167523 2.13357276 20.66726895 2.15087891 22.39282227 C2.17512754 24.8726014 2.18648301 27.35215523 2.1953125 29.83203125 C2.20563507 30.60400345 2.21595764 31.37597565 2.22659302 32.17134094 C2.22739422 35.99281476 2.17242595 37.74136107 0 41 C0 27.47 0 13.94 0 0 Z " fill="#2378C2" transform="translate(430,506)"/>
<path d="M0 0 C5.61 0 11.22 0 17 0 C17.33 7.92 17.66 15.84 18 24 C19.65 22.68 21.3 21.36 23 20 C21.32971708 23.94794145 18.8204435 26.81796118 16 30 C15.67 30 15.34 30 15 30 C15 20.43 15 10.86 15 1 C10.38 1 5.76 1 1 1 C1 24.43 1 47.86 1 72 C0.67 72 0.34 72 0 72 C0 48.24 0 24.48 0 0 Z " fill="#B2DCEF" transform="translate(653,403)"/>
<path d="M0 0 C0.33 0 0.66 0 1 0 C1 23.43 1 46.86 1 71 C13.54 71 26.08 71 39 71 C34.67691584 73.16154208 31.62788867 73.26009056 26.953125 73.1953125 C25.79632233 73.19106766 25.79632233 73.19106766 24.6161499 73.18673706 C22.16060668 73.17557013 19.7054324 73.15047229 17.25 73.125 C15.58203653 73.11496568 13.91406732 73.10584061 12.24609375 73.09765625 C8.16392103 73.07564225 4.082023 73.04113667 0 73 C-1.46544176 70.06911647 -1.07374529 67.52664799 -1.02172852 64.25537109 C-1.01212097 63.56257553 -1.00251343 62.86977997 -0.99261475 62.1559906 C-0.95958347 59.86170418 -0.91926704 57.56760574 -0.87890625 55.2734375 C-0.85460916 53.6844652 -0.83076539 52.0954859 -0.80735779 50.50650024 C-0.74447593 46.32084194 -0.67542095 42.13530716 -0.60510254 37.94976807 C-0.53445609 33.68011102 -0.46961706 29.41036627 -0.40429688 25.140625 C-0.27523169 16.76031958 -0.13964827 8.38013571 0 0 Z " fill="#B8E1F7" transform="translate(429,404)"/>
<path d="M0 0 C1.48831242 0.00667405 2.97660807 0.01863442 4.46484375 0.03515625 C5.22345703 0.03966797 5.98207031 0.04417969 6.76367188 0.04882812 C8.64326246 0.06064945 10.52281274 0.07858547 12.40234375 0.09765625 C12.40234375 0.42765625 12.40234375 0.75765625 12.40234375 1.09765625 C7.45234375 1.09765625 2.50234375 1.09765625 -2.59765625 1.09765625 C-2.59765625 15.94765625 -2.59765625 30.79765625 -2.59765625 46.09765625 C-5.90892006 41.95857649 -9.12717301 37.78902242 -12.28515625 33.53515625 C-12.78337891 32.87580078 -13.28160156 32.21644531 -13.79492188 31.53710938 C-14.50745117 30.57514648 -14.50745117 30.57514648 -15.234375 29.59375 C-15.66451904 29.01810303 -16.09466309 28.44245605 -16.5378418 27.84936523 C-17.68829623 25.94784242 -18.16849456 24.26785226 -18.59765625 22.09765625 C-15.0906853 25.34723484 -12.50396752 28.91077798 -9.84765625 32.84765625 C-9.43644531 33.44964844 -9.02523437 34.05164063 -8.6015625 34.671875 C-7.59642193 36.14452282 -6.59650147 37.62073127 -5.59765625 39.09765625 C-5.5726001 37.95176025 -5.54754395 36.80586426 -5.52172852 35.62524414 C-5.42782519 31.38912027 -5.3275635 27.15316697 -5.2253418 22.91723633 C-5.18192805 21.08101378 -5.14025786 19.24474917 -5.1003418 17.40844727 C-5.04279456 14.77477314 -4.97905627 12.14131204 -4.9140625 9.5078125 C-4.89735001 8.68177017 -4.88063751 7.85572784 -4.86341858 7.00465393 C-4.68309574 0.12711986 -4.68309574 0.12711986 0 0 Z " fill="#DDF5FC" transform="translate(799.59765625,402.90234375)"/>
<path d="M0 0 C5.625 5.625 5.625 5.625 7.67578125 8.33203125 C8.32836914 9.18764648 8.32836914 9.18764648 8.99414062 10.06054688 C9.42919922 10.63869141 9.86425781 11.21683594 10.3125 11.8125 C10.76689453 12.40998047 11.22128906 13.00746094 11.68945312 13.62304688 C12.79633917 15.07947588 13.89865264 16.53937817 15 18 C14.01 18 13.02 18 12 18 C8.73930401 14.53093484 5.94085723 10.75065849 3 7 C2.67 15.91 2.34 24.82 2 34 C1.34 34 0.68 34 0 34 C0 22.78 0 11.56 0 0 Z " fill="#D5F2FB" transform="translate(668,441)"/>
<path d="M0 0 C2 1 2 1 2.8515625 3.28515625 C3.56770833 5.85677083 4.28385417 8.42838542 5 11 C-1.27 11 -7.54 11 -14 11 C-13.24872886 7.24364431 -12.75994274 5.16789693 -11 2 C-10.67 2.99 -10.34 3.98 -10 5 C-10.66 6.32 -11.32 7.64 -12 9 C-7.38 9 -2.76 9 2 9 C1.34 6.03 0.68 3.06 0 0 Z " fill="#D9F2FD" transform="translate(606,539)"/>
<path d="M0 0 C1.76150391 -0.02126953 1.76150391 -0.02126953 3.55859375 -0.04296875 C6.5625 0.1875 6.5625 0.1875 8.5625 2.1875 C8.5625 3.1775 8.5625 4.1675 8.5625 5.1875 C7.9025 5.1875 7.2425 5.1875 6.5625 5.1875 C6.2325 3.8675 5.9025 2.5475 5.5625 1.1875 C4.5725 1.5175 3.5825 1.8475 2.5625 2.1875 C0.2218935 1.90980092 -2.11374308 1.58210023 -4.4375 1.1875 C-4.581875 2.445625 -4.72625 3.70375 -4.875 5 C-5.17498686 7.61417123 -5.59563297 9.66189892 -6.4375 12.1875 C-8.38893115 9.31774831 -8.42680952 8.06135237 -8.125 4.5 C-6.98770622 -0.97968819 -5.2683989 0.02885213 0 0 Z " fill="#0971C3" transform="translate(229.4375,588.8125)"/>
<path d="M0 0 C6.9368763 0.14759311 11.02205941 3.34041608 16 8 C17.828125 10.04296875 17.828125 10.04296875 19 12 C18.67 12.99 18.34 13.98 18 15 C17.12988281 13.95199219 17.12988281 13.95199219 16.2421875 12.8828125 C15.46101563 11.97273437 14.67984375 11.06265625 13.875 10.125 C13.10929687 9.22007812 12.34359375 8.31515625 11.5546875 7.3828125 C8.77305793 4.78832621 6.65290108 3.92116636 3 3 C3 2.34 3 1.68 3 1 C2.01 0.67 1.02 0.34 0 0 Z " fill="#0A3E8C" transform="translate(380,510)"/>
<path d="M0 0 C0.33 0.99 0.66 1.98 1 3 C-5.6 3 -12.2 3 -19 3 C-12.84425224 -0.07787388 -6.74930538 -0.14061053 0 0 Z " fill="#BCE5F7" transform="translate(303,628)"/>
<path d="M0 0 C0.33 0 0.66 0 1 0 C1.42691034 8.44333791 1.63421641 14.75903687 -3 22 C-4 20 -4 20 -3.4765625 18.22265625 C-3.19554687 17.50980469 -2.91453125 16.79695312 -2.625 16.0625 C-0.73646137 10.76769306 -0.30266817 5.58370591 0 0 Z " fill="#033382" transform="translate(401,532)"/>
<path d="M0 0 C3.7910119 1.44950455 7.3874638 3.15172566 11 5 C10.67 5.99 10.34 6.98 10 8 C8.70141061 7.43224464 7.41129559 6.84508337 6.125 6.25 C5.40570313 5.92515625 4.68640625 5.6003125 3.9453125 5.265625 C1.6629326 3.78070314 0.99624102 2.49584592 0 0 Z " fill="#0863B5" transform="translate(258,621)"/>
<path d="M0 0 C3.00617269 3.00617269 2.59585316 5.82381598 3 10 C2.01 9.01 1.02 8.02 0 7 C-0.66 8.65 -1.32 10.3 -2 12 C-3.12377697 8.69564916 -2.89554742 6.9493138 -1.5625 3.75 C-1.27503906 3.04359375 -0.98757813 2.3371875 -0.69140625 1.609375 C-0.46324219 1.07828125 -0.23507812 0.5471875 0 0 Z " fill="#D4F0FA" transform="translate(601,523)"/>
<path d="M0 0 C2.6015625 0.2421875 2.6015625 0.2421875 5.625 0.875 C6.62789063 1.07867188 7.63078125 1.28234375 8.6640625 1.4921875 C9.43492187 1.65976562 10.20578125 1.82734375 11 2 C10.67 2.99 10.34 3.98 10 5 C4.06 3.515 4.06 3.515 -2 2 C-1.34 1.34 -0.68 0.68 0 0 Z " fill="#095EAF" transform="translate(273,628)"/>
<path d="M0 0 C2 3 2 3 1.9375 4.9375 C0.61848701 7.83932859 -1.44878816 9.16836073 -4 11 C-4.66 10.67 -5.32 10.34 -6 10 C-5.38125 9.278125 -4.7625 8.55625 -4.125 7.8125 C-2.16333647 5.21618062 -1.04684 3.05328334 0 0 Z " fill="#0F458B" transform="translate(627,447)"/>
<path d="M0 0 C3.63 0 7.26 0 11 0 C10.01 1.485 10.01 1.485 9 3 C6.6171875 3.29296875 6.6171875 3.29296875 3.875 3.1875 C2.96492187 3.16042969 2.05484375 3.13335937 1.1171875 3.10546875 C0.41851563 3.07066406 -0.28015625 3.03585937 -1 3 C-0.67 2.01 -0.34 1.02 0 0 Z " fill="#BAE3F7" transform="translate(522,459)"/>
<path d="M0 0 C2.64465038 3.1254959 3.84414715 6.08788267 5 10 C4.01 10.495 4.01 10.495 3 11 C1.68 7.7 0.36 4.4 -1 1 C-0.67 0.67 -0.34 0.34 0 0 Z " fill="#0D6DBF" transform="translate(224,601)"/>
<path d="M0 0 C0.33 0 0.66 0 1 0 C1.33292585 4.24480464 1.43885872 6.35542625 -1 9.9375 C-1.66 10.618125 -2.32 11.29875 -3 12 C-2.49202991 7.6822542 -1.80317221 3.96697886 0 0 Z " fill="#D6F0FB" transform="translate(374,585)"/>
<path d="M0 0 C-2.97 1.65 -5.94 3.3 -9 5 C-9 4.01 -9 3.02 -9 2 C-3.375 -1.125 -3.375 -1.125 0 0 Z " fill="#053D8D" transform="translate(365,511)"/>
</svg>
