<?xml version="1.0" standalone="no"?>
<!DOCTYPE svg PUBLIC "-//W3C//DTD SVG 20010904//EN"
 "http://www.w3.org/TR/2001/REC-SVG-20010904/DTD/svg10.dtd">
<svg version="1.0" xmlns="http://www.w3.org/2000/svg"
 width="1024.000000pt" height="1024.000000pt" viewBox="0 0 1024.000000 1024.000000"
 preserveAspectRatio="xMidYMid meet">

<g transform="translate(0.000000,1024.000000) scale(0.100000,-0.100000)"
fill="#000000" stroke="none">
<path d="M1913 6845 l-34 -34 3 -167 3 -166 33 -29 c46 -42 93 -40 138 5 l34
34 0 156 c0 168 -6 193 -50 219 -46 28 -87 22 -127 -18z"/>
<path d="M3044 6846 l-34 -34 0 -161 0 -161 28 -30 c19 -22 39 -33 68 -37 36
-5 46 -1 75 25 l34 30 0 172 0 172 -33 29 c-46 42 -93 40 -138 -5z"/>
<path d="M1687 6609 c-86 -6 -109 -12 -172 -43 -117 -58 -182 -150 -204 -286
-14 -86 -14 -1479 -1 -1575 21 -144 103 -255 233 -316 l72 -34 292 -3 292 -3
11 -55 c7 -31 32 -96 57 -146 126 -252 407 -397 728 -374 124 8 205 29 310 80
160 78 293 213 375 381 35 71 67 185 85 296 5 33 9 37 59 52 117 37 197 148
198 272 1 150 -81 256 -226 292 -51 12 -73 13 -117 4 -148 -31 -237 -139 -239
-287 0 -107 45 -193 129 -244 40 -25 41 -26 35 -70 -31 -242 -172 -454 -364
-549 -188 -92 -411 -95 -588 -9 -122 59 -250 211 -278 330 l-6 27 439 3 c430
3 439 3 492 26 73 31 133 74 171 122 l32 41 -51 54 c-141 149 -147 359 -15
521 66 82 184 134 301 134 l53 0 0 498 c0 538 -5 592 -54 676 -36 62 -93 113
-164 148 -53 26 -78 32 -163 37 -55 3 -102 4 -105 2 -2 -2 -4 -36 -4 -74 0
-96 -28 -145 -105 -183 -46 -22 -64 -26 -102 -20 -58 8 -116 45 -140 88 -11
20 -20 64 -23 111 l-5 78 -373 2 -372 2 0 -55 c0 -108 -37 -176 -115 -211 -87
-40 -185 -11 -236 69 -25 40 -29 56 -29 118 0 40 -3 74 -7 76 -5 2 -52 1 -106
-3z m1064 -487 c22 -18 22 -23 23 -228 l1 -209 223 -5 c207 -5 225 -6 238 -24
11 -16 14 -63 14 -218 0 -185 -1 -199 -20 -218 -19 -19 -33 -20 -240 -20 -121
0 -219 -3 -219 -7 1 -5 1 -101 0 -215 -1 -173 -4 -209 -17 -222 -13 -14 -47
-16 -215 -16 -186 0 -200 1 -219 20 -19 19 -20 33 -20 230 l0 210 -209 0
c-196 0 -210 1 -235 21 l-26 20 0 199 0 199 26 20 c25 20 39 21 235 21 l209 0
0 210 c0 197 1 211 20 230 19 19 33 20 214 20 173 0 196 -2 217 -18z m1050
-1155 c100 -67 61 -219 -59 -234 -68 -8 -142 57 -142 125 0 103 116 166 201
109z"/>
<path d="M5204 6208 c-208 -23 -338 -218 -294 -440 24 -123 87 -209 189 -257
50 -23 68 -26 171 -26 106 0 120 2 172 28 150 74 229 261 184 437 -48 188
-204 283 -422 258z m184 -171 c62 -41 87 -95 87 -192 0 -69 -4 -86 -27 -127
-35 -58 -82 -88 -151 -95 -99 -10 -175 30 -213 111 -40 86 -27 214 29 275 62
67 196 81 275 28z"/>
<path d="M6005 6209 c-119 -17 -212 -86 -263 -198 -34 -71 -42 -201 -18 -283
33 -115 115 -200 227 -233 86 -26 225 -18 301 19 72 34 140 108 169 184 31 80
31 214 0 293 -62 161 -223 245 -416 218z m146 -149 c43 -12 95 -61 116 -109
25 -56 22 -167 -4 -217 -52 -98 -170 -141 -271 -99 -83 35 -122 101 -122 210
0 104 41 177 118 211 34 15 115 17 163 4z"/>
<path d="M8502 6209 c-114 -14 -208 -85 -261 -198 -23 -50 -26 -68 -26 -166 0
-100 3 -115 29 -173 36 -78 105 -143 184 -172 48 -19 73 -21 163 -18 102 3
111 5 185 43 l79 40 3 158 3 157 -151 0 -150 0 0 -60 0 -60 83 0 84 0 -2 -52
c-2 -47 -6 -55 -31 -67 -16 -8 -57 -17 -92 -19 -144 -10 -232 75 -232 223 0
94 43 175 112 211 57 30 181 12 248 -36 15 -11 30 -20 33 -20 8 0 67 96 67
109 0 16 -84 67 -139 85 -63 19 -114 24 -189 15z"/>
<path d="M4300 5844 l0 -356 193 4 c177 3 195 5 235 26 82 44 129 146 103 224
-12 36 -59 87 -100 108 l-23 12 36 24 c69 47 91 131 54 204 -46 89 -111 110
-343 110 l-155 0 0 -356z m309 215 c57 -20 71 -92 25 -128 -22 -17 -41 -21
-105 -21 l-79 0 0 80 0 80 64 0 c34 0 77 -5 95 -11z m16 -283 c59 -25 74 -88
30 -131 -22 -23 -32 -25 -115 -25 l-90 0 0 85 0 85 70 0 c39 0 86 -6 105 -14z"/>
<path d="M6540 5845 l0 -355 70 0 70 0 2 170 3 170 130 -169 130 -170 98 -1
99 0 -49 63 c-256 325 -257 326 -237 350 11 12 69 76 129 142 159 173 153 155
48 155 l-89 0 -130 -144 -129 -143 -3 143 -3 144 -69 0 -70 0 0 -355z"/>
<path d="M7210 5845 l0 -355 70 0 70 0 0 355 0 355 -70 0 -70 0 0 -355z"/>
<path d="M7500 5845 l0 -355 70 0 70 0 2 226 3 225 160 -225 159 -226 73 0 73
0 0 355 0 355 -70 0 -70 0 -2 -224 -3 -224 -156 222 -156 221 -77 3 -76 3 0
-356z"/>
<path d="M4300 4820 l0 -360 75 0 75 0 0 150 0 150 165 0 165 0 0 -150 0 -150
75 0 75 0 0 360 0 360 -75 0 -75 0 0 -145 0 -145 -165 0 -165 0 0 145 0 145
-75 0 -75 0 0 -360z"/>
<path d="M5060 4820 l0 -360 258 0 257 0 0 60 0 60 -182 0 -183 0 0 90 0 90
158 0 157 0 0 65 0 65 -157 0 -158 0 0 80 0 80 176 0 176 0 -4 63 -4 62 -247
3 -247 2 0 -360z"/>
<path d="M5796 4855 c-70 -180 -134 -342 -142 -361 l-14 -34 84 0 83 0 30 78
29 77 146 3 146 3 18 -48 c9 -27 23 -63 30 -80 l13 -33 80 0 81 0 -19 48 c-23
58 -241 643 -246 658 -2 7 -38 12 -97 13 l-94 2 -128 -326z m269 21 c25 -71
44 -131 42 -133 -3 -2 -47 -2 -98 -1 l-94 3 49 133 c27 73 50 131 52 129 2 -2
24 -61 49 -131z"/>
<path d="M6470 5178 c0 -2 -1 -164 -3 -361 l-2 -357 251 0 250 0 0 60 -1 60
-172 0 -173 0 -2 298 -3 297 -72 3 c-40 2 -73 2 -73 0z"/>
<path d="M6859 5178 c0 -2 -1 -31 -2 -66 l-2 -62 118 0 117 0 0 -295 0 -295
75 0 75 0 0 295 0 295 114 0 114 0 4 61 c1 33 1 62 0 64 -4 4 -612 7 -613 3z"/>
<path d="M7557 5174 c-4 -4 -7 -166 -7 -361 l0 -353 78 0 77 0 -3 150 -3 150
170 0 171 0 0 -150 0 -150 75 0 75 0 0 360 0 360 -75 0 -75 0 0 -145 0 -145
-170 0 -170 0 0 143 0 144 -68 2 c-37 1 -71 -1 -75 -5z"/>
</g>
</svg>
